<?xml version="1.0" standalone="no"?>
<!DOCTYPE svg PUBLIC "-//W3C//DTD SVG 20010904//EN"
 "http://www.w3.org/TR/2001/REC-SVG-20010904/DTD/svg10.dtd">
<svg version="1.0" xmlns="http://www.w3.org/2000/svg"
 width="300.000000pt" height="288.000000pt" viewBox="0 0 300.000000 288.000000"
 preserveAspectRatio="xMidYMid meet" >
<metadata>
Created by potrace 1.10, written by Peter Selinger 2001-2011
</metadata>
<g transform="translate(0.000000,288.000000) scale(0.100000,-0.100000)"
fill="green" stroke="green">
<path d="M1610 2532 c1 -4 15 -16 33 -27 65 -42 99 -122 117 -285 6 -52 17
-120 26 -150 40 -140 137 -259 303 -369 51 -35 111 -79 132 -98 22 -20 41 -34
44 -32 10 11 -38 189 -76 277 -40 96 -157 303 -197 352 -21 25 -21 25 -17 2 2
-12 23 -57 47 -98 24 -42 49 -88 57 -102 8 -15 17 -29 20 -32 3 -3 12 -18 20
-35 7 -16 18 -39 23 -49 19 -36 68 -186 68 -207 0 -26 4 -27 -110 51 -99 68
-224 185 -214 201 3 5 1 9 -4 9 -10 0 -53 93 -70 150 -6 19 -13 68 -17 109 -5
62 -29 173 -51 243 -6 20 13 16 120 -27 243 -97 432 -272 500 -460 10 -27 21
-59 26 -70 10 -24 11 -27 16 -140 3 -62 -1 -120 -14 -185 l-18 -95 -22 135
c-21 125 -55 246 -97 345 -52 120 -193 285 -245 285 -16 0 -11 -8 22 -37 64
-57 86 -82 133 -153 144 -219 203 -557 139 -796 -16 -61 -16 -62 7 -94 l24
-32 13 32 c22 53 41 139 52 229 6 47 18 133 27 191 57 370 -102 652 -474 839
-86 42 -343 135 -343 123z"/>
<path d="M1140 2357 c-170 -51 -345 -186 -457 -352 -369 -547 -80 -1290 563
-1446 76 -19 120 -22 309 -23 216 -1 222 -2 299 -30 90 -32 182 -84 235 -131
20 -18 42 -30 49 -28 16 6 -81 98 -120 114 -45 19 -42 37 5 31 68 -7 115 -58
154 -162 7 -19 13 -35 13 -36 0 0 -17 2 -37 5 -21 4 -36 10 -33 14 3 4 -17 22
-43 41 -53 38 -206 120 -212 114 -9 -9 18 -85 38 -108 39 -44 76 -61 179 -80
81 -16 107 -25 130 -47 35 -33 35 -23 3 83 -30 99 -73 160 -135 192 -40 21
-54 23 -125 18 -66 -5 -90 -2 -135 15 -30 11 -62 22 -70 25 -9 4 9 15 45 28
108 39 192 92 318 198 l27 23 -23 29 -24 30 -42 -39 c-137 -127 -302 -202
-495 -225 -409 -49 -816 222 -929 620 -30 104 -42 190 -27 190 6 0 13 -6 16
-14 9 -25 89 -74 146 -91 68 -19 113 -14 182 23 159 86 161 301 4 366 -41 18
-88 21 -88 7 0 -5 15 -9 34 -8 44 1 109 -43 130 -88 38 -79 5 -187 -71 -235
-60 -38 -109 -45 -175 -26 -69 20 -120 63 -152 128 -33 66 -33 120 -1 232 100
345 399 596 745 625 81 7 84 8 55 20 -16 7 -70 15 -120 17 -73 3 -104 0 -165
-19z m-556 -928 c-27 -30 -34 -23 -34 40 0 91 10 101 32 36 18 -54 18 -58 2
-76z m1166 -814 c0 -3 -9 -14 -19 -24 -16 -16 -28 -19 -58 -14 -30 5 -33 8
-18 14 11 4 32 8 48 8 15 1 27 6 27 11 0 6 5 10 10 10 6 0 10 -2 10 -5z m232
-239 c66 -30 76 -42 47 -49 -25 -7 -93 33 -110 64 -6 12 -7 19 -2 17 4 -3 34
-17 65 -32z"/>
<path d="M1064 2056 c-88 -59 -144 -140 -144 -206 0 -30 32 -114 47 -123 4 -3
8 23 9 58 1 60 21 114 79 215 13 22 15 23 21 6 4 -10 2 -21 -3 -25 -21 -12
-43 -85 -53 -170 -15 -129 -14 -130 38 -86 56 47 67 85 67 232 0 73 -2 133 -5
133 -3 0 -28 -15 -56 -34z m28 -153 c3 -38 -15 -110 -33 -127 -13 -14 -11 65
3 119 15 55 26 58 30 8z"/>
<path d="M1452 1888 c-211 -215 -266 -340 -217 -488 25 -76 109 -160 190 -190
204 -75 428 79 429 297 0 61 -50 169 -116 249 -58 71 -191 214 -199 214 -4 0
-43 -37 -87 -82z m178 -47 c0 -3 17 -24 38 -46 44 -48 102 -129 102 -144 0 -6
4 -11 9 -11 16 0 41 -92 41 -149 0 -201 -230 -332 -416 -238 -71 36 -80 49
-60 88 15 30 15 32 -13 60 -30 30 -51 37 -51 18 0 -5 -4 -7 -10 -4 -14 8 -13
25 1 25 22 0 49 43 49 78 0 41 45 129 95 186 82 92 85 97 71 131 -13 31 -12
34 15 64 l29 32 50 -42 c27 -23 50 -45 50 -48z m-155 -11 c3 -5 -23 -44 -59
-87 -82 -98 -119 -165 -126 -228 -4 -37 -10 -51 -22 -53 -14 -3 -18 4 -18 31
0 72 56 178 152 290 50 57 62 65 73 47z m-145 -472 c0 -27 -25 -22 -40 8 -12
21 -12 27 0 34 16 10 39 -15 40 -42z"/>
<path d="M784 1696 c-28 -13 -59 -34 -68 -47 -21 -30 -21 -92 0 -154 l17 -48
18 35 c10 20 33 48 51 63 18 15 38 37 45 49 14 24 17 86 4 86 -18 0 -80 -80
-92 -119 -16 -54 -34 -53 -25 1 9 56 38 101 81 124 19 10 35 22 35 26 0 12
-11 10 -66 -16z"/>
<path d="M946 1298 c4 -7 46 -64 93 -127 70 -93 93 -117 129 -132 33 -14 48
-16 57 -9 11 9 -4 34 -65 118 -114 154 -122 162 -176 162 -34 0 -43 -3 -38
-12z m144 -108 c12 -17 19 -30 16 -30 -8 0 -56 54 -56 63 0 13 17 -1 40 -33z"/>
<path d="M1980 1284 c-30 -8 -95 -37 -145 -65 -106 -59 -206 -94 -330 -115
-150 -25 -275 -74 -275 -108 0 -8 18 -21 40 -30 56 -22 180 -20 292 4 51 12
110 19 133 18 54 -5 35 -11 -137 -43 -110 -21 -162 -26 -208 -22 -67 7 -140
40 -147 65 -6 21 -241 102 -295 102 -36 0 -88 -17 -88 -29 0 -3 55 -30 123
-60 67 -30 149 -67 182 -82 33 -15 116 -52 184 -83 76 -34 138 -56 159 -56 20
0 119 27 222 59 389 124 377 125 493 -29 l75 -99 7 47 c4 28 22 72 44 107 51
81 66 127 52 166 -14 40 -184 223 -224 242 -51 23 -98 27 -157 11z m147 -48
c16 -8 51 -38 78 -66 28 -29 57 -60 66 -69 30 -32 59 -79 59 -99 0 -35 -79
-188 -97 -186 -4 0 -26 23 -48 52 -57 72 -108 96 -193 89 -37 -2 -98 -15 -137
-27 -38 -13 -110 -36 -160 -52 -49 -16 -110 -35 -135 -43 -84 -27 -108 -24
-222 27 -77 35 -88 51 -25 36 23 -5 76 -7 117 -4 99 8 278 49 298 69 14 15 14
18 -3 37 -23 26 -56 25 -175 -1 -171 -37 -324 -21 -232 24 24 13 141 40 217
51 77 11 177 43 250 79 44 22 82 42 85 46 3 4 23 14 45 23 22 8 51 21 65 27
31 14 110 7 147 -13z m-1055 -226 c71 -18 94 -29 127 -61 41 -40 44 -46 13
-30 -29 15 -144 68 -199 91 -29 12 -53 27 -53 32 0 7 4 7 13 1 6 -5 51 -20 99
-33z"/>
<path d="M1168 1175 c47 -63 91 -115 96 -115 6 0 18 5 26 10 12 8 11 12 -6 32
-12 13 -42 54 -69 91 -44 64 -85 97 -119 97 -8 0 21 -47 72 -115z"/>
<path d="M1232 1212 c2 -4 23 -35 47 -69 42 -58 45 -61 72 -51 16 5 29 12 29
15 0 9 -85 90 -107 102 -25 13 -46 15 -41 3z"/>
</g>
</svg>
